<?xml version="1.0" encoding="UTF-8" standalone="no"?><svg xmlns="http://www.w3.org/2000/svg" xmlns:xlink="http://www.w3.org/1999/xlink" contentStyleType="text/css" height="527px" preserveAspectRatio="none" style="width:533px;height:527px;background:#FFFFFF;" version="1.1" viewBox="0 0 533 527" width="533px" zoomAndPan="magnify"><defs/><g><rect fill="none" height="26.2969" id="_title" style="stroke:none;stroke-width:1.0;" width="500" x="15" y="15"/><text fill="#000000" font-family="sans-serif" font-size="14" font-weight="bold" lengthAdjust="spacing" textLength="490" x="20" y="32.9951">Broker de Eventos Caipora - Fluxo funcionamento consumidor</text><ellipse cx="156.5" cy="57.2969" fill="#222222" rx="10" ry="10" style="stroke:#222222;stroke-width:1.0;"/><rect fill="#F1F1F1" height="33.9688" rx="12.5" ry="12.5" style="stroke:#181818;stroke-width:0.5;" width="251" x="31" y="195.2344"/><text fill="#000000" font-family="sans-serif" font-size="12" lengthAdjust="spacing" textLength="231" x="41" y="216.373">Dispara pedido  de evento ao broker</text><rect fill="#F1F1F1" height="33.9688" rx="12.5" ry="12.5" style="stroke:#181818;stroke-width:0.5;" width="146" x="83.5" y="141.2656"/><text fill="#000000" font-family="sans-serif" font-size="12" lengthAdjust="spacing" textLength="126" x="93.5" y="162.4043">Solicita novo evento</text><polygon fill="#F1F1F1" points="70,254.2188,243,254.2188,255,266.2188,243,278.2188,70,278.2188,58,266.2188,70,254.2188" style="stroke:#181818;stroke-width:0.5;"/><text fill="#000000" font-family="sans-serif" font-size="11" lengthAdjust="spacing" textLength="173" x="70" y="270.0269">Tem evento para processar  ?</text><text fill="#000000" font-family="sans-serif" font-size="11" lengthAdjust="spacing" textLength="21" x="255" y="263.6245">não</text><rect fill="#F1F1F1" height="33.9688" rx="12.5" ry="12.5" style="stroke:#181818;stroke-width:0.5;" width="183" x="292" y="190.25"/><text fill="#000000" font-family="sans-serif" font-size="12" lengthAdjust="spacing" textLength="163" x="302" y="211.3887">Dorme até o próximo ciclo</text><rect fill="#F1F1F1" height="33.9688" rx="12.5" ry="12.5" style="stroke:#181818;stroke-width:0.5;" width="249" x="32" y="326.0234"/><text fill="#000000" font-family="sans-serif" font-size="12" lengthAdjust="spacing" textLength="229" x="42" y="347.1621">Recebe evento para processamento</text><rect fill="#F1F1F1" height="33.9688" rx="12.5" ry="12.5" style="stroke:#181818;stroke-width:0.5;" width="125" x="94" y="379.9922"/><text fill="#000000" font-family="sans-serif" font-size="12" lengthAdjust="spacing" textLength="105" x="104" y="401.1309">Processa evento</text><rect fill="#F1F1F1" height="33.9688" rx="12.5" ry="12.5" style="stroke:#181818;stroke-width:0.5;" width="240" x="36.5" y="433.9609"/><text fill="#000000" font-family="sans-serif" font-size="12" lengthAdjust="spacing" textLength="220" x="46.5" y="455.0996">Comunica uso do evento ao broker</text><rect fill="#F1F1F1" height="33.9688" rx="12.5" ry="12.5" style="stroke:#181818;stroke-width:0.5;" width="116" x="98.5" y="87.2969"/><text fill="#000000" font-family="sans-serif" font-size="12" lengthAdjust="spacing" textLength="96" x="108.5" y="108.4355">Inicia execução</text><line style="stroke:#181818;stroke-width:1.0;" x1="156.5" x2="156.5" y1="175.2344" y2="195.2344"/><polygon fill="#181818" points="152.5,185.2344,156.5,195.2344,160.5,185.2344,156.5,189.2344" style="stroke:#181818;stroke-width:1.0;"/><line style="stroke:#181818;stroke-width:1.0;" x1="255" x2="383.5" y1="266.2188" y2="266.2188"/><line style="stroke:#181818;stroke-width:1.0;" x1="383.5" x2="383.5" y1="224.2188" y2="266.2188"/><polygon fill="#181818" points="379.5,234.2188,383.5,224.2188,387.5,234.2188,383.5,230.2188" style="stroke:#181818;stroke-width:1.0;"/><line style="stroke:#181818;stroke-width:1.0;" x1="383.5" x2="383.5" y1="158.25" y2="190.25"/><line style="stroke:#181818;stroke-width:1.0;" x1="383.5" x2="229.5" y1="158.25" y2="158.25"/><polygon fill="#181818" points="239.5,154.25,229.5,158.25,239.5,162.25,235.5,158.25" style="stroke:#181818;stroke-width:1.0;"/><line style="stroke:#181818;stroke-width:1.0;" x1="156.5" x2="156.5" y1="229.2031" y2="254.2188"/><polygon fill="#181818" points="152.5,244.2188,156.5,254.2188,160.5,244.2188,156.5,248.2188" style="stroke:#181818;stroke-width:1.0;"/><line style="stroke:#181818;stroke-width:1.0;" x1="156.5" x2="156.5" y1="278.2188" y2="326.0234"/><polygon fill="#181818" points="152.5,316.0234,156.5,326.0234,160.5,316.0234,156.5,320.0234" style="stroke:#181818;stroke-width:1.0;"/><text fill="#000000" font-family="sans-serif" font-size="11" lengthAdjust="spacing" textLength="21" x="160.5" y="305.9292">sim</text><line style="stroke:#181818;stroke-width:1.0;" x1="156.5" x2="156.5" y1="359.9922" y2="379.9922"/><polygon fill="#181818" points="152.5,369.9922,156.5,379.9922,160.5,369.9922,156.5,373.9922" style="stroke:#181818;stroke-width:1.0;"/><line style="stroke:#181818;stroke-width:1.0;" x1="156.5" x2="156.5" y1="413.9609" y2="433.9609"/><polygon fill="#181818" points="152.5,423.9609,156.5,433.9609,160.5,423.9609,156.5,427.9609" style="stroke:#181818;stroke-width:1.0;"/><line style="stroke:#181818;stroke-width:1.0;" x1="156.5" x2="156.5" y1="121.2656" y2="141.2656"/><polygon fill="#181818" points="152.5,131.2656,156.5,141.2656,160.5,131.2656,156.5,135.2656" style="stroke:#181818;stroke-width:1.0;"/><line style="stroke:#181818;stroke-width:1.0;" x1="156.5" x2="156.5" y1="467.9297" y2="515.9297"/><line style="stroke:#181818;stroke-width:1.0;" x1="156.5" x2="487" y1="515.9297" y2="515.9297"/><polygon fill="#181818" points="483,295.6133,487,285.6133,491,295.6133,487,291.6133" style="stroke:#181818;stroke-width:1.0;"/><line style="stroke:#181818;stroke-width:1.0;" x1="487" x2="487" y1="104.2813" y2="515.9297"/><line style="stroke:#181818;stroke-width:1.0;" x1="487" x2="214.5" y1="104.2813" y2="104.2813"/><polygon fill="#181818" points="224.5,100.2813,214.5,104.2813,224.5,108.2813,220.5,104.2813" style="stroke:#181818;stroke-width:1.0;"/><line style="stroke:#181818;stroke-width:1.0;" x1="156.5" x2="156.5" y1="67.2969" y2="87.2969"/><polygon fill="#181818" points="152.5,77.2969,156.5,87.2969,160.5,77.2969,156.5,81.2969" style="stroke:#181818;stroke-width:1.0;"/><!--MD5=[08a8a563c7cf4885277164039461daa7]
@startuml
title Broker de Eventos Caipora - Fluxo funcionamento consumidor

start

repeat :Inicia execução;
repeat :Solicita novo evento;
:Dispara pedido  de evento ao broker;
backward :Dorme até o próximo ciclo;
repeat while (Tem evento para processar  ?) is (não) 
->sim;
:Recebe evento para processamento;
:Processa evento;
:Comunica uso do evento ao broker;
repeat while
@enduml

PlantUML version 1.2022.7(Mon Aug 22 17:01:30 UTC 2022)
(GPL source distribution)
Java Runtime: OpenJDK Runtime Environment
JVM: OpenJDK 64-Bit Server VM
Default Encoding: UTF-8
Language: en
Country: null
--></g></svg>